<?xml version="1.0" encoding="UTF-8" standalone="no" ?>
<!DOCTYPE svg PUBLIC "-//W3C//DTD SVG 1.1//EN" "http://www.w3.org/Graphics/SVG/1.1/DTD/svg11.dtd">
<svg xmlns="http://www.w3.org/2000/svg" xmlns:xlink="http://www.w3.org/1999/xlink" version="1.1" width="200" height="200" viewBox="0 0 200 200" xml:space="preserve">
<desc>Created with Fabric.js 4.6.0</desc>
<defs>
</defs>
<g transform="matrix(1.24 0 0 1.24 100 100)" id="reuUal3Jm6RPF4yzP4rXJ"  >
<path style="stroke: rgb(0,0,0); stroke-width: 1; stroke-dasharray: none; stroke-linecap: butt; stroke-dashoffset: 0; stroke-linejoin: miter; stroke-miterlimit: 4; fill: rgb(146,123,123); fill-rule: nonzero; opacity: 1;" vector-effect="non-scaling-stroke"  transform=" translate(0, 0)" d="M -72.02842 21.03391 C -72.02842 21.03391 -35.60993 33.481849999999994 -0.11323999999999046 32.68715 C 35.38345000000001 31.892450000000004 40.02257000000001 29.375890000000002 55.25435000000001 26.06463 C 70.48614 22.75337 70.86633 21.033900000000003 70.86633 21.033900000000003 C 70.86633 21.033900000000003 75.23719 19.22576 67.02527 -1.1715899999999984 C 58.81335000000001 -21.568939999999998 48.89298000000001 -26.1208 37.76715 -28.240009999999998 C 26.64132 -30.359219999999997 15.747910000000001 -33.2906 2.5028799999999976 -32.62835 C -10.742150000000002 -31.966099999999997 -36.98301 -33.965599999999995 -53.67175 -21.78017 C -70.36049 -9.594739999999998 -72.02844 21.033900000000003 -72.02844 21.033900000000003 z" stroke-linecap="round" />
</g>
<g transform="matrix(1.25 0 0 1.25 98.54 77.15)" id="kVOQGWwDeWpTxASgeMp0D"  >
<path style="stroke: rgb(0,0,0); stroke-width: 1; stroke-dasharray: none; stroke-linecap: butt; stroke-dashoffset: 0; stroke-linejoin: miter; stroke-miterlimit: 4; fill: rgb(183,113,59); fill-rule: nonzero; opacity: 1;" vector-effect="non-scaling-stroke"  transform=" translate(0, 0)" d="M -39.26721 2.81273 C -39.26721 2.81273 -10.17765 -9.84456 39.26721 2.81273" stroke-linecap="round" />
</g>
<g transform="matrix(1.24 0 0 1.25 98.58 83.78)" id="7BJcuP2egXqjuXyz-kdin"  >
<path style="stroke: rgb(0,0,0); stroke-width: 1; stroke-dasharray: none; stroke-linecap: butt; stroke-dashoffset: 0; stroke-linejoin: miter; stroke-miterlimit: 4; fill: rgb(183,113,59); fill-rule: nonzero; opacity: 1;" vector-effect="non-scaling-stroke"  transform=" translate(0, 0)" d="M -38.4127 -2.62787 C -38.4127 -2.62787 -4.365079999999999 9.19753 38.4127 -2.62787" stroke-linecap="round" />
</g>
<g transform="matrix(1.24 0 0 1.24 75.14 113.39)" id="6k3gLcTrH5S7vErU_Kx87"  >
<path style="stroke: rgb(0,0,0); stroke-width: 3; stroke-dasharray: none; stroke-linecap: butt; stroke-dashoffset: 0; stroke-linejoin: miter; stroke-miterlimit: 4; fill: rgb(255,255,255); fill-opacity: 0; fill-rule: nonzero; opacity: 1;" vector-effect="non-scaling-stroke"  transform=" translate(0, 0)" d="M 2.35633 -10.48097 C 2.35633 -10.48097 -20.36098 13.578790000000001 6.593 10.14563" stroke-linecap="round" />
</g>
<g transform="matrix(1.24 0 0 1.24 95.39 117.19)" id="98atIwJxUlKLU19Xc5Yo5"  >
<path style="stroke: rgb(0,0,0); stroke-width: 2; stroke-dasharray: none; stroke-linecap: butt; stroke-dashoffset: 0; stroke-linejoin: miter; stroke-miterlimit: 4; fill: rgb(255,255,255); fill-opacity: 0; fill-rule: nonzero; opacity: 1;" vector-effect="non-scaling-stroke"  transform=" translate(0, 0)" d="M 1.64354 -4.31337 C 1.64354 -4.31337 -1.2783 -4.82469 -3.1775 -1.6106699999999998 C -5.076700000000001 1.6033500000000003 -5.22279 1.9685800000000002 -5.22279 1.9685800000000002 C -5.22279 1.9685800000000002 -5.0767 6.05916 -1.57049 3.5025500000000003 C 1.9357199999999999 0.9459400000000002 2.66618 -3.58291 2.2279 -3.8750999999999998 C 1.78962 -4.16728 1.05916 -4.3133799999999995 1.05916 -4.3133799999999995 C 1.05916 -4.3133799999999995 3.25054 4.30605 5.22278 3.5025400000000007" stroke-linecap="round" />
</g>
<g transform="matrix(1.24 0 0 1.24 113.03 110.4)" id="9lO5TtR1keN41DvXWvRA0"  >
<path style="stroke: rgb(0,0,0); stroke-width: 2; stroke-dasharray: none; stroke-linecap: butt; stroke-dashoffset: 0; stroke-linejoin: miter; stroke-miterlimit: 4; fill: rgb(255,255,255); fill-opacity: 0; fill-rule: nonzero; opacity: 1;" vector-effect="non-scaling-stroke"  transform=" translate(0, 0)" d="M -1.49264 -6.28196 C -1.49264 -6.28196 -2.2231 -1.9722399999999993 -0.98132 0.43827000000000016 C 0.26046000000000014 2.84879 2.2327000000000004 5.55149 1.57529 6.28195" stroke-linecap="round" />
</g>
<g transform="matrix(1.24 0 0 1.24 113.85 109.99)" id="8HIy12ieDIk_Z5NsByUCD"  >
<path style="stroke: rgb(0,0,0); stroke-width: 2; stroke-dasharray: none; stroke-linecap: butt; stroke-dashoffset: 0; stroke-linejoin: miter; stroke-miterlimit: 4; fill: rgb(255,255,255); fill-opacity: 0; fill-rule: nonzero; opacity: 1;" vector-effect="non-scaling-stroke"  transform=" translate(0, 0)" d="M -5.58802 0.98744 C -5.58802 0.98744 -1.71658 1.64485 5.58802 -1.0578500000000002" stroke-linecap="round" />
</g>
<g transform="matrix(0.25 -0.06 0.1 0.42 27.96 106.85)" id="ZojyBwMi07szXb46K2DcA"  >
<path style="stroke: rgb(205,123,201); stroke-width: 0; stroke-dasharray: none; stroke-linecap: butt; stroke-dashoffset: 0; stroke-linejoin: miter; stroke-miterlimit: 4; fill: rgb(223,24,83); fill-rule: nonzero; opacity: 1;" vector-effect="non-scaling-stroke"  transform=" translate(0, 0)" d="M 0 -4.52899 C 2.5 -4.52899 4.52899 -2.5000000000000004 4.52899 0 C 4.52899 2.5 2.5000000000000004 4.52899 0 4.52899 C -2.5 4.52899 -4.52899 2.5000000000000004 -4.52899 0 C -4.52899 -2.5 -2.5000000000000004 -4.52899 0 -4.52899 z" stroke-linecap="round" />
</g>
<g transform="matrix(0.3 -0.01 0.02 0.51 32.02 105.51)" id="QX_vfxQrq3GrRXmKEKGyM"  >
<path style="stroke: rgb(205,123,201); stroke-width: 0; stroke-dasharray: none; stroke-linecap: butt; stroke-dashoffset: 0; stroke-linejoin: miter; stroke-miterlimit: 4; fill: rgb(223,24,83); fill-rule: nonzero; opacity: 1;" vector-effect="non-scaling-stroke"  transform=" translate(0, 0)" d="M 0 -4.52899 C 2.5 -4.52899 4.52899 -2.5000000000000004 4.52899 0 C 4.52899 2.5 2.5000000000000004 4.52899 0 4.52899 C -2.5 4.52899 -4.52899 2.5000000000000004 -4.52899 0 C -4.52899 -2.5 -2.5000000000000004 -4.52899 0 -4.52899 z" stroke-linecap="round" />
</g>
<g transform="matrix(0.27 0.13 -0.22 0.46 35.71 106.52)" id="T0RVvKa2KIU04f6UO4qE3"  >
<path style="stroke: rgb(205,123,201); stroke-width: 0; stroke-dasharray: none; stroke-linecap: butt; stroke-dashoffset: 0; stroke-linejoin: miter; stroke-miterlimit: 4; fill: rgb(223,24,83); fill-rule: nonzero; opacity: 1;" vector-effect="non-scaling-stroke"  transform=" translate(0, 0)" d="M 0 -4.52899 C 2.5 -4.52899 4.52899 -2.5000000000000004 4.52899 0 C 4.52899 2.5 2.5000000000000004 4.52899 0 4.52899 C -2.5 4.52899 -4.52899 2.5000000000000004 -4.52899 0 C -4.52899 -2.5 -2.5000000000000004 -4.52899 0 -4.52899 z" stroke-linecap="round" />
</g>
<g transform="matrix(0.25 0.15 -0.26 0.44 38.86 108.93)" id="yp0YX8vDYW5-VPX9qSuaV"  >
<path style="stroke: rgb(205,123,201); stroke-width: 0; stroke-dasharray: none; stroke-linecap: butt; stroke-dashoffset: 0; stroke-linejoin: miter; stroke-miterlimit: 4; fill: rgb(223,24,83); fill-rule: nonzero; opacity: 1;" vector-effect="non-scaling-stroke"  transform=" translate(0, 0)" d="M 0 -4.52899 C 2.5 -4.52899 4.52899 -2.5000000000000004 4.52899 0 C 4.52899 2.5 2.5000000000000004 4.52899 0 4.52899 C -2.5 4.52899 -4.52899 2.5000000000000004 -4.52899 0 C -4.52899 -2.5 -2.5000000000000004 -4.52899 0 -4.52899 z" stroke-linecap="round" />
</g>
<g transform="matrix(1.17 0.4 -0.31 0.89 31.22 114.23)" id="bloe5UwfQ5eubylDGT4Vj"  >
<path style="stroke: rgb(205,123,201); stroke-width: 0; stroke-dasharray: none; stroke-linecap: butt; stroke-dashoffset: 0; stroke-linejoin: miter; stroke-miterlimit: 4; fill: rgb(223,24,83); fill-rule: nonzero; opacity: 1;" vector-effect="non-scaling-stroke"  transform=" translate(0, 0)" d="M 0 -4.52899 C 2.5 -4.52899 4.52899 -2.5000000000000004 4.52899 0 C 4.52899 2.5 2.5000000000000004 4.52899 0 4.52899 C -2.5 4.52899 -4.52899 2.5000000000000004 -4.52899 0 C -4.52899 -2.5 -2.5000000000000004 -4.52899 0 -4.52899 z" stroke-linecap="round" />
</g>
<g transform="matrix(0.01 0.33 -0.57 0.02 30.66 109.99)" id="fPMZ-NUMTMQ_g5zk0XcAB"  >
<path style="stroke: rgb(205,123,201); stroke-width: 0; stroke-dasharray: none; stroke-linecap: butt; stroke-dashoffset: 0; stroke-linejoin: miter; stroke-miterlimit: 4; fill: rgb(223,24,83); fill-rule: nonzero; opacity: 1;" vector-effect="non-scaling-stroke"  transform=" translate(0, 0)" d="M 0 -4.52899 C 2.5 -4.52899 4.52899 -2.5000000000000004 4.52899 0 C 4.52899 2.5 2.5000000000000004 4.52899 0 4.52899 C -2.5 4.52899 -4.52899 2.5000000000000004 -4.52899 0 C -4.52899 -2.5 -2.5000000000000004 -4.52899 0 -4.52899 z" stroke-linecap="round" />
</g>
<g transform="matrix(-0.24 0.23 -0.4 -0.41 34.72 111.27)" id="asFEj4G_fu6iW68SIesBf"  >
<path style="stroke: rgb(205,123,201); stroke-width: 0; stroke-dasharray: none; stroke-linecap: butt; stroke-dashoffset: 0; stroke-linejoin: miter; stroke-miterlimit: 4; fill: rgb(223,24,83); fill-rule: nonzero; opacity: 1;" vector-effect="non-scaling-stroke"  transform=" translate(0, 0)" d="M 0 -4.52899 C 2.5 -4.52899 4.52899 -2.5000000000000004 4.52899 0 C 4.52899 2.5 2.5000000000000004 4.52899 0 4.52899 C -2.5 4.52899 -4.52899 2.5000000000000004 -4.52899 0 C -4.52899 -2.5 -2.5000000000000004 -4.52899 0 -4.52899 z" stroke-linecap="round" />
</g>
<g transform="matrix(0.16 0.1 -0.17 0.28 38.43 114.39)" id="8npBFk0QfUeYZAkaXYQIJ"  >
<path style="stroke: rgb(205,123,201); stroke-width: 0; stroke-dasharray: none; stroke-linecap: butt; stroke-dashoffset: 0; stroke-linejoin: miter; stroke-miterlimit: 4; fill: rgb(223,24,83); fill-rule: nonzero; opacity: 1;" vector-effect="non-scaling-stroke"  transform=" translate(0, 0)" d="M 0 -4.52899 C 2.5 -4.52899 4.52899 -2.5000000000000004 4.52899 0 C 4.52899 2.5 2.5000000000000004 4.52899 0 4.52899 C -2.5 4.52899 -4.52899 2.5000000000000004 -4.52899 0 C -4.52899 -2.5 -2.5000000000000004 -4.52899 0 -4.52899 z" stroke-linecap="round" />
</g>
<g transform="matrix(-0.24 -0.06 -0.1 0.42 171.09 105.2)" id="4m_sUZ9Z26gaTM0O-zMRW"  >
<path style="stroke: rgb(205,123,201); stroke-width: 0; stroke-dasharray: none; stroke-linecap: butt; stroke-dashoffset: 0; stroke-linejoin: miter; stroke-miterlimit: 4; fill: rgb(223,24,83); fill-rule: nonzero; opacity: 1;" vector-effect="non-scaling-stroke"  transform=" translate(0, 0)" d="M 0 -4.52899 C 2.5 -4.52899 4.52899 -2.5000000000000004 4.52899 0 C 4.52899 2.5 2.5000000000000004 4.52899 0 4.52899 C -2.5 4.52899 -4.52899 2.5000000000000004 -4.52899 0 C -4.52899 -2.5 -2.5000000000000004 -4.52899 0 -4.52899 z" stroke-linecap="round" />
</g>
<g transform="matrix(-0.3 -0.01 -0.02 0.51 167.04 103.88)" id="FoDBL0nGMkWrWmBRK_UGP"  >
<path style="stroke: rgb(205,123,201); stroke-width: 0; stroke-dasharray: none; stroke-linecap: butt; stroke-dashoffset: 0; stroke-linejoin: miter; stroke-miterlimit: 4; fill: rgb(223,24,83); fill-rule: nonzero; opacity: 1;" vector-effect="non-scaling-stroke"  transform=" translate(0, 0)" d="M 0 -4.52899 C 2.5 -4.52899 4.52899 -2.5000000000000004 4.52899 0 C 4.52899 2.5 2.5000000000000004 4.52899 0 4.52899 C -2.5 4.52899 -4.52899 2.5000000000000004 -4.52899 0 C -4.52899 -2.5 -2.5000000000000004 -4.52899 0 -4.52899 z" stroke-linecap="round" />
</g>
<g transform="matrix(-0.27 0.13 0.21 0.46 163.33 104.88)" id="_e4sBECWMf87hHGcIXr8E"  >
<path style="stroke: rgb(205,123,201); stroke-width: 0; stroke-dasharray: none; stroke-linecap: butt; stroke-dashoffset: 0; stroke-linejoin: miter; stroke-miterlimit: 4; fill: rgb(223,24,83); fill-rule: nonzero; opacity: 1;" vector-effect="non-scaling-stroke"  transform=" translate(0, 0)" d="M 0 -4.52899 C 2.5 -4.52899 4.52899 -2.5000000000000004 4.52899 0 C 4.52899 2.5 2.5000000000000004 4.52899 0 4.52899 C -2.5 4.52899 -4.52899 2.5000000000000004 -4.52899 0 C -4.52899 -2.5 -2.5000000000000004 -4.52899 0 -4.52899 z" stroke-linecap="round" />
</g>
<g transform="matrix(-0.25 0.15 0.26 0.44 160.19 107.28)" id="4xj-zYLES7w37SXD1s93y"  >
<path style="stroke: rgb(205,123,201); stroke-width: 0; stroke-dasharray: none; stroke-linecap: butt; stroke-dashoffset: 0; stroke-linejoin: miter; stroke-miterlimit: 4; fill: rgb(223,24,83); fill-rule: nonzero; opacity: 1;" vector-effect="non-scaling-stroke"  transform=" translate(0, 0)" d="M 0 -4.52899 C 2.5 -4.52899 4.52899 -2.5000000000000004 4.52899 0 C 4.52899 2.5 2.5000000000000004 4.52899 0 4.52899 C -2.5 4.52899 -4.52899 2.5000000000000004 -4.52899 0 C -4.52899 -2.5 -2.5000000000000004 -4.52899 0 -4.52899 z" stroke-linecap="round" />
</g>
<g transform="matrix(-1.17 0.4 0.31 0.89 167.83 112.59)" id="AfmsCa1v767PmZCARn78v"  >
<path style="stroke: rgb(205,123,201); stroke-width: 0; stroke-dasharray: none; stroke-linecap: butt; stroke-dashoffset: 0; stroke-linejoin: miter; stroke-miterlimit: 4; fill: rgb(223,24,83); fill-rule: nonzero; opacity: 1;" vector-effect="non-scaling-stroke"  transform=" translate(0, 0)" d="M 0 -4.52899 C 2.5 -4.52899 4.52899 -2.5000000000000004 4.52899 0 C 4.52899 2.5 2.5000000000000004 4.52899 0 4.52899 C -2.5 4.52899 -4.52899 2.5000000000000004 -4.52899 0 C -4.52899 -2.5 -2.5000000000000004 -4.52899 0 -4.52899 z" stroke-linecap="round" />
</g>
<g transform="matrix(-0.16 0.1 0.17 0.28 160.62 112.75)" id="9GrUFkJX1hcpj-EhsKNIL"  >
<path style="stroke: rgb(205,123,201); stroke-width: 0; stroke-dasharray: none; stroke-linecap: butt; stroke-dashoffset: 0; stroke-linejoin: miter; stroke-miterlimit: 4; fill: rgb(223,24,83); fill-rule: nonzero; opacity: 1;" vector-effect="non-scaling-stroke"  transform=" translate(0, 0)" d="M 0 -4.52899 C 2.5 -4.52899 4.52899 -2.5000000000000004 4.52899 0 C 4.52899 2.5 2.5000000000000004 4.52899 0 4.52899 C -2.5 4.52899 -4.52899 2.5000000000000004 -4.52899 0 C -4.52899 -2.5 -2.5000000000000004 -4.52899 0 -4.52899 z" stroke-linecap="round" />
</g>
<g transform="matrix(1.24 0 0 1.24 11.37 126.06)" id="BYzODG5g37qEsziAcn1SK"  >
<path style="stroke: rgb(0,0,0); stroke-width: 1; stroke-dasharray: none; stroke-linecap: butt; stroke-dashoffset: 0; stroke-linejoin: miter; stroke-miterlimit: 4; fill: rgb(255,255,255); fill-opacity: 0; fill-rule: nonzero; opacity: 1;" vector-effect="non-scaling-stroke"  transform=" translate(0, 0)" d="M 0 0" stroke-linecap="round" />
</g>
<g transform="matrix(1.24 0 0 1.24 99.39 80.81)" id="LQLdcMYUro-xNjSS2Z6w2"  >
<path style="stroke: rgb(0,0,0); stroke-width: 1; stroke-dasharray: none; stroke-linecap: butt; stroke-dashoffset: 0; stroke-linejoin: miter; stroke-miterlimit: 4; fill: rgb(255,255,255); fill-opacity: 0; fill-rule: nonzero; opacity: 1;" vector-effect="non-scaling-stroke"  transform=" translate(0, 0)" d="M -53.35149 -5.79838 C -53.35149 -5.79838 -8.90016 20.29434 53.3515 -5.79838" stroke-linecap="round" />
</g>
</svg>