<?xml version="1.0" encoding="UTF-8" standalone="no" ?>
<!DOCTYPE svg PUBLIC "-//W3C//DTD SVG 1.1//EN" "http://www.w3.org/Graphics/SVG/1.1/DTD/svg11.dtd">
<svg xmlns="http://www.w3.org/2000/svg" xmlns:xlink="http://www.w3.org/1999/xlink" version="1.1" width="500" height="500" viewBox="0 0 500 500" xml:space="preserve">
<desc>Created with Fabric.js 4.6.0</desc>
<defs>
</defs>
<g transform="matrix(0.56 0 0 0.56 246.62 237.32)" id="Wez_cSuG4ZIfEsLINP6-J"  >
<path style="stroke: rgb(0,0,0); stroke-width: 10; stroke-dasharray: none; stroke-linecap: butt; stroke-dashoffset: 0; stroke-linejoin: miter; stroke-miterlimit: 4; fill: rgb(255,255,255); fill-rule: nonzero; opacity: 1;" vector-effect="non-scaling-stroke"  transform=" translate(0, 0)" d="M 2.96474 325.36763 L 202.19254 330.77304000000004 C 202.19254 330.77304000000004 258.5632 341.19775000000004 260.4937 250.07806000000005 C 262.4242 158.95837000000006 257.0188 113.78462000000005 251.99948999999998 93.70740000000006 C 246.98018 73.63018000000007 202.57863999999998 -104.74819999999994 191.76782999999998 -127.91421999999994 C 180.95701999999997 -151.08023999999995 174.77940999999998 -179.65166999999994 168.98790999999997 -189.69027999999994 C 163.19639999999998 -199.72888999999995 155.47439999999997 -207.06479999999993 155.08829999999998 -213.24239999999995 C 154.70219999999998 -219.42000999999993 163.19641 -290.07638 153.15779999999998 -314.78679999999997 C 143.11918999999997 -339.49721999999997 121.88366999999998 -333.70572 111.07285999999998 -322.89491 C 100.26204999999997 -312.0841 90.22343999999998 -305.52038999999996 90.22343999999998 -305.52038999999996 C 90.22343999999998 -305.52038999999996 82.88752999999998 -299.34277999999995 65.89911999999998 -311.698 C 48.91069999999998 -324.05321 2.578659999999985 -324.05321 2.578659999999985 -324.05321 C 2.578659999999985 -324.05321 -46.06999000000002 -321.35051 -62.28620000000001 -310.5397 C -78.50242 -299.72889 -94.71863 -315.94511 -94.71863 -315.94511 C -94.71863 -315.94511 -122.90396000000001 -330.23082 -129.85377 -329.84472 C -136.80358 -329.45862 -139.89238 -330.23082 -142.20898 -325.59762 C -144.52558 -320.96442 -153.79199 -295.48179 -152.24759 -271.15747 C -150.70319 -246.83315 -147.22828 -224.82541999999998 -150.31709 -215.17291 C -153.40589 -205.5204 -198.19354 -115.94511 -208.61825000000002 -56.87174999999999 C -219.04296000000002 2.2016100000000094 -269.62211 147.37535 -259.5835 224.20933 C -249.54489 301.04331 -240.66458 309.53752 -240.66458 309.53752 C -240.66458 309.53752 -236.41748 328.45644 -203.21284 331.54524 C -170.00821 334.63403999999997 2.9647699999999872 325.36762999999996 2.9647699999999872 325.36762999999996 z" stroke-linecap="round" />
</g>
<g transform="matrix(0.56 0.01 -0.01 0.56 182.17 420.74)" id="WbHeGU3Yz_ljpPIXmkyzz"  >
<path style="stroke: rgb(0,0,0); stroke-width: 10; stroke-dasharray: none; stroke-linecap: butt; stroke-dashoffset: 0; stroke-linejoin: miter; stroke-miterlimit: 4; fill: rgb(255,255,255); fill-rule: nonzero; opacity: 1;" vector-effect="non-scaling-stroke"  transform=" translate(0, 0)" d="M -67.03003 -64.29235 L -65.87173 34.93545 C -65.87173 34.93545 -68.18833 68.14008000000001 -24.94509 67.36788 C 18.29815 66.59568 48.02788 56.94317 48.02788 56.94317 C 48.02788 56.94317 68.4912 52.30997 66.9468 21.808030000000002 C 65.4024 -8.6939 60.769189999999995 -67.38116 60.769189999999995 -67.38116" stroke-linecap="round" />
</g>
<g transform="matrix(0.61 0 0 0.58 306.94 420.79)" id="ra_4l8LV6l4Lk9lh-TGdB"  >
<path style="stroke: rgb(0,0,0); stroke-width: 10; stroke-dasharray: none; stroke-linecap: butt; stroke-dashoffset: 0; stroke-linejoin: miter; stroke-miterlimit: 4; fill: rgb(255,255,255); fill-rule: nonzero; opacity: 1;" vector-effect="non-scaling-stroke"  transform=" translate(0, 0)" d="M -59.46212 -63.87816 L -65.25363 31.488639999999997 C -65.25363 31.488639999999997 -71.04514 60.446169999999995 -37.4544 61.99057 C -3.863669999999999 63.53497 36.67687 64.69327 49.41819 63.148869999999995 C 62.1595 61.60446999999999 66.79271 52.33806 65.24831 27.241529999999997 C 63.70391 2.144999999999996 65.53789 -38.781639999999996 65.63441 -60.78936" stroke-linecap="round" />
</g>
<g transform="matrix(0.56 0 0 0.56 183.52 84.81)" id="8Uipeezl3FS--ooeo0-_W"  >
<path style="stroke: rgb(0,0,0); stroke-width: 10; stroke-dasharray: none; stroke-linecap: butt; stroke-dashoffset: 0; stroke-linejoin: miter; stroke-miterlimit: 4; fill: rgb(0,0,0); fill-rule: nonzero; opacity: 1;" vector-effect="non-scaling-stroke"  transform=" translate(0, 0)" d="M -1.84365 7.11034 C -1.84365 7.11034 22.48067 -8.333680000000001 17.07527 -11.42248 C 11.66986 -14.51128 -11.11006 -38.449510000000004 -11.882259999999999 -29.1831 C -12.654459999999998 -19.91669 -22.30697 43.78987000000001 -15.357159999999999 29.118060000000003 C -8.407349999999997 14.446250000000003 -1.8436499999999985 7.110340000000004 -1.8436499999999985 7.110340000000004 z" stroke-linecap="round" />
</g>
<g transform="matrix(0.56 0 0 0.56 313.49 86.19)" id="1z9AfCLW8vrPtG8EcPCcn"  >
<path style="stroke: rgb(0,0,0); stroke-width: 10; stroke-dasharray: none; stroke-linecap: butt; stroke-dashoffset: 0; stroke-linejoin: miter; stroke-miterlimit: 4; fill: rgb(0,0,0); fill-rule: nonzero; opacity: 1;" vector-effect="non-scaling-stroke"  transform=" translate(0, 0)" d="M -3.24235 1.93391 L 7.954560000000001 22.39723 C 7.954560000000001 22.39723 19.151470000000003 43.24665 16.448770000000003 17.764029999999998 C 13.746070000000003 -7.718600000000002 14.132170000000002 -20.45991 14.132170000000002 -20.45991 C 14.132170000000002 -20.45991 15.290470000000003 -39.37883 -2.4701499999999967 -25.093110000000003 C -20.230769999999996 -10.807400000000003 -19.844669999999997 -12.737900000000003 -10.578259999999997 -5.401990000000001 C -1.3118499999999962 1.9339199999999988 -3.2423499999999965 1.9339199999999988 -3.2423499999999965 1.9339199999999988 z" stroke-linecap="round" />
</g>
<g transform="matrix(0.56 0 0 0.56 185.18 150.58)" id="QMnD-Fxg7FafOCv4DxMck"  >
<path style="stroke: rgb(55,10,59); stroke-width: 0; stroke-dasharray: none; stroke-linecap: butt; stroke-dashoffset: 0; stroke-linejoin: miter; stroke-miterlimit: 4; fill: rgb(0,0,0); fill-rule: nonzero; opacity: 1;" vector-effect="non-scaling-stroke"  transform=" translate(0, 0)" d="M 0 -7.52896 C 4.15598 -7.52896 7.52896 -4.155989999999999 7.52896 0 C 7.52896 4.15598 4.155989999999999 7.52896 0 7.52896 C -4.15598 7.52896 -7.52896 4.155989999999999 -7.52896 0 C -7.52896 -4.15598 -4.155989999999999 -7.52896 0 -7.52896 z" stroke-linecap="round" />
</g>
<g transform="matrix(0.53 0 0 0.53 311.47 150.25)" id="13fGab9Db1mXZ5JvQA36d"  >
<path style="stroke: rgb(230,11,2); stroke-width: 0; stroke-dasharray: none; stroke-linecap: butt; stroke-dashoffset: 0; stroke-linejoin: miter; stroke-miterlimit: 4; fill: rgb(0,0,0); fill-rule: nonzero; opacity: 1;" vector-effect="non-scaling-stroke"  transform=" translate(0, 0)" d="M 0 -7.72201 C 4.26255 -7.72201 7.72201 -4.26255 7.72201 0 C 7.72201 4.26255 4.26255 7.72201 0 7.72201 C -4.26255 7.72201 -7.72201 4.26255 -7.72201 0 C -7.72201 -4.26255 -4.26255 -7.72201 0 -7.72201 z" stroke-linecap="round" />
</g>
<g transform="matrix(0.56 0 0 0.56 238.17 176.02)" id="iZooSp9BFNXNExWAKyR3G"  >
<path style="stroke: rgb(0,0,0); stroke-width: 10; stroke-dasharray: none; stroke-linecap: butt; stroke-dashoffset: 0; stroke-linejoin: miter; stroke-miterlimit: 4; fill: rgb(255,255,255); fill-opacity: 0; fill-rule: nonzero; opacity: 1;" vector-effect="non-scaling-stroke"  transform=" translate(0, 0)" d="M -16.98842 -12.97384 L -14.67182 2.08408 C -14.67182 2.08408 -13.12742 14.05319 1.5443999999999996 12.89489 C 16.21621 11.73659 16.988419999999998 4.0145800000000005 16.988419999999998 4.0145800000000005 L 16.988419999999998 -11.81554" stroke-linecap="round" />
</g>
<g transform="matrix(0.56 0 0 0.56 257.68 176.03)" id="CFvVae2BAPZg2B116PESY"  >
<path style="stroke: rgb(0,0,0); stroke-width: 10; stroke-dasharray: none; stroke-linecap: butt; stroke-dashoffset: 0; stroke-linejoin: miter; stroke-miterlimit: 4; fill: rgb(255,255,255); fill-opacity: 0; fill-rule: nonzero; opacity: 1;" vector-effect="non-scaling-stroke"  transform=" translate(0, 0)" d="M 17.45898 -12.22909 C 17.45898 -12.22909 15.91458 1.2844200000000008 13.21188 3.9871300000000005 C 10.50918 6.689830000000001 5.103770000000001 11.709140000000001 2.7871700000000015 11.32304 C 0.47057000000000127 10.93694 -10.726339999999999 14.79794 -14.20125 9.006440000000001 C -17.67615 3.2149300000000016 -17.67615 -1.8043699999999987 -17.29005 -9.140279999999997" stroke-linecap="round" />
</g>
</svg>